<svg width="40" height="40" viewBox="0 0 40 40" fill="none" xmlns="http://www.w3.org/2000/svg">
<path d="M40 0H0V39.9999H40V0Z" fill="#39A935"/>
<path d="M36.01 19.6381C36.01 16.823 33.7187 14.5317 30.9037 14.5317H25.1426V8.77068C25.1426 5.95563 22.8514 3.66431 20.0363 3.66431C17.2212 3.66431 14.9299 5.95563 14.9299 8.77068V14.5317H9.16883C6.35377 14.5317 4.0625 16.823 4.0625 19.6381C4.0625 22.4531 6.35377 24.7445 9.16883 24.7445H14.9299V30.5055C14.9299 33.3206 17.2212 35.6119 20.0363 35.6119C22.8514 35.6119 25.1426 33.3206 25.1426 30.5055V24.7445H30.9037C33.7187 24.7445 36.01 22.4531 36.01 19.6381ZM22.524 19.6381C22.524 21.0129 21.4111 22.1258 20.0363 22.1258C18.6615 22.1258 17.5485 21.0129 17.5485 19.6381C17.5485 18.2633 18.6615 17.1504 20.0363 17.1504C21.4111 17.1504 22.524 18.2633 22.524 19.6381Z" fill="#A1C517"/>
<path d="M36.1119 7.65775C36.1119 5.4319 34.3443 3.66431 32.1184 3.66431C29.8926 3.66431 28.125 5.4319 28.125 7.65775V11.6512H32.1184C34.2788 11.7167 36.1119 9.88361 36.1119 7.65775Z" fill="#A1C517"/>
<path d="M4.0625 31.6204C4.0625 33.8463 5.83008 35.6138 8.05593 35.6138C10.2818 35.6138 12.0494 33.8463 12.0494 31.6204V27.627H8.05593C5.83008 27.627 4.0625 29.3945 4.0625 31.6204Z" fill="#A1C517"/>
<path d="M32.1184 27.627H28.125V31.6204C28.125 33.8463 29.8926 35.6138 32.1184 35.6138C34.3443 35.6138 36.1119 33.8463 36.1119 31.6204C36.1119 29.3945 34.2788 27.627 32.1184 27.627Z" fill="#A1C517"/>
<path d="M8.05593 11.7188H12.0494V7.72538C12.0494 5.49953 10.2818 3.73193 8.05593 3.73193C5.83008 3.73193 4.0625 5.49953 4.0625 7.72538C4.0625 9.88577 5.83008 11.7188 8.05593 11.7188Z" fill="#A1C517"/>
</svg>
