<svg width="14" height="14" viewBox="0 0 14 14" fill="none" xmlns="http://www.w3.org/2000/svg">
<path d="M11.0207 10.078L13.876 12.9327L12.9327 13.876L10.078 11.0207C9.01584 11.8722 7.69468 12.3353 6.33334 12.3334C3.02134 12.3334 0.333344 9.64537 0.333344 6.33337C0.333344 3.02137 3.02134 0.333374 6.33334 0.333374C9.64534 0.333374 12.3333 3.02137 12.3333 6.33337C12.3353 7.69471 11.8722 9.01587 11.0207 10.078ZM9.68334 9.58337C10.5294 8.7133 11.0019 7.54699 11 6.33337C11 3.75471 8.91134 1.66671 6.33334 1.66671C3.75468 1.66671 1.66668 3.75471 1.66668 6.33337C1.66668 8.91137 3.75468 11 6.33334 11C7.54696 11.002 8.71327 10.5294 9.58334 9.68337L9.68334 9.58337Z" fill="#0B6839"/>
</svg>
